<svg xmlns="http://www.w3.org/2000/svg" width="128" height="128" viewBox="0 0 655 655"><rect width="655" height="655" fill="#fff"/><rect width="418" height="392" x="25" y="24" fill="#DADCE0" rx="44"/><path stroke="#5F6368" stroke-linecap="round" stroke-width="8" d="M47 112.5H420"/><path stroke="#5F6368" stroke-linecap="round" stroke-width="8" d="M47 175.5H420"/><path stroke="#5F6368" stroke-linecap="round" stroke-width="8" d="M47 242.5H420"/><path stroke="#5F6368" stroke-linecap="round" stroke-width="8" d="M47 321.5H420"/><rect width="180" height="40" x="201" y="92" fill="#FDE293" stroke="#5F6368" stroke-width="8" rx="20"/><rect width="237" height="40" x="93" y="155" fill="#AECBFA" stroke="#5F6368" stroke-width="8" rx="20"/><rect width="180" height="40" x="184" y="222" fill="#fff" stroke="#5F6368" stroke-width="8" rx="20"/><rect width="180" height="40" x="62" y="301" fill="#F6AEA9" stroke="#5F6368" stroke-width="8" rx="20"/><rect width="418" height="392" x="211" y="238" fill="#3C4043" rx="44"/><rect width="178" height="38" x="318" y="310" fill="#FDE293" stroke="#FDE293" stroke-width="6" rx="19"/><rect width="235" height="38" x="318" y="380" fill="#AECBFA" stroke="#AECBFA" stroke-width="6" rx="19"/><rect width="178" height="38" x="318" y="450" fill="#fff" stroke="#fff" stroke-width="6" rx="19"/><rect width="178" height="38" x="318" y="520" fill="#F6AEA9" stroke="#F6AEA9" stroke-width="6" rx="19"/></svg>